<mxfile host="65bd71144e">
    <diagram id="FISShYL5WxdU9tI8w1Jn" name="第 1 页">
        <mxGraphModel dx="2780" dy="2568" grid="1" gridSize="10" guides="1" tooltips="1" connect="1" arrows="1" fold="1" page="0" pageScale="1" pageWidth="827" pageHeight="1169" background="none" math="0" shadow="0">
            <root>
                <mxCell id="0"/>
                <mxCell id="1" parent="0"/>
                <mxCell id="59" value="" style="whiteSpace=wrap;html=1;fillColor=default;" parent="1" vertex="1">
                    <mxGeometry x="-245" y="-40" width="1600" height="2080" as="geometry"/>
                </mxCell>
                <mxCell id="26" style="edgeStyle=none;html=1;entryX=0.5;entryY=0;entryDx=0;entryDy=0;strokeWidth=7;fontSize=27;fillColor=#d80073;strokeColor=#A50040;" parent="1" source="6" target="19" edge="1">
                    <mxGeometry relative="1" as="geometry"/>
                </mxCell>
                <mxCell id="27" style="edgeStyle=none;html=1;entryX=0.5;entryY=0;entryDx=0;entryDy=0;strokeWidth=7;fontSize=27;fillColor=#d80073;strokeColor=#A50040;" parent="1" source="6" target="22" edge="1">
                    <mxGeometry relative="1" as="geometry"/>
                </mxCell>
                <mxCell id="29" style="edgeStyle=none;html=1;entryX=0.5;entryY=0;entryDx=0;entryDy=0;strokeWidth=7;fontSize=27;fillColor=#d80073;strokeColor=#A50040;" parent="1" source="6" target="23" edge="1">
                    <mxGeometry relative="1" as="geometry"/>
                </mxCell>
                <mxCell id="6" value="&lt;font style=&quot;font-size: 27px;&quot;&gt;PC/Mobile APP&lt;/font&gt;" style="whiteSpace=wrap;html=1;strokeWidth=3;perimeterSpacing=1;" parent="1" vertex="1">
                    <mxGeometry x="40" y="240" width="240" height="80" as="geometry"/>
                </mxCell>
                <mxCell id="30" style="edgeStyle=none;html=1;entryX=0.5;entryY=0;entryDx=0;entryDy=0;strokeWidth=7;fontSize=27;fillColor=#60a917;strokeColor=#2D7600;" parent="1" source="9" target="19" edge="1">
                    <mxGeometry relative="1" as="geometry"/>
                </mxCell>
                <mxCell id="31" style="edgeStyle=none;html=1;strokeWidth=7;fontSize=27;fillColor=#60a917;strokeColor=#2D7600;" parent="1" source="9" target="22" edge="1">
                    <mxGeometry relative="1" as="geometry"/>
                </mxCell>
                <mxCell id="32" style="edgeStyle=none;html=1;entryX=0.431;entryY=-0.002;entryDx=0;entryDy=0;entryPerimeter=0;strokeWidth=7;fontSize=27;fillColor=#60a917;strokeColor=#2D7600;" parent="1" source="9" target="23" edge="1">
                    <mxGeometry relative="1" as="geometry"/>
                </mxCell>
                <mxCell id="9" value="&lt;span style=&quot;font-size: 27px;&quot;&gt;第三方聊天软件&lt;/span&gt;" style="whiteSpace=wrap;html=1;strokeWidth=3;perimeterSpacing=1;" parent="1" vertex="1">
                    <mxGeometry x="320" y="240" width="240" height="80" as="geometry"/>
                </mxCell>
                <mxCell id="33" style="edgeStyle=none;html=1;entryX=0.5;entryY=0;entryDx=0;entryDy=0;strokeWidth=7;fontSize=27;fillColor=#1ba1e2;strokeColor=#006EAF;" parent="1" source="10" target="22" edge="1">
                    <mxGeometry relative="1" as="geometry"/>
                </mxCell>
                <mxCell id="10" value="&lt;span style=&quot;font-size: 27px;&quot;&gt;VOIP电话&lt;/span&gt;" style="whiteSpace=wrap;html=1;strokeWidth=3;perimeterSpacing=1;" parent="1" vertex="1">
                    <mxGeometry x="600" y="240" width="240" height="80" as="geometry"/>
                </mxCell>
                <mxCell id="34" style="edgeStyle=none;html=1;entryX=0.5;entryY=0;entryDx=0;entryDy=0;strokeWidth=7;fontSize=27;fillColor=#6a00ff;strokeColor=#3700CC;" parent="1" source="11" target="19" edge="1">
                    <mxGeometry relative="1" as="geometry"/>
                </mxCell>
                <mxCell id="11" value="&lt;span style=&quot;font-size: 27px;&quot;&gt;定时任务触发&lt;/span&gt;" style="whiteSpace=wrap;html=1;strokeWidth=3;perimeterSpacing=1;" parent="1" vertex="1">
                    <mxGeometry x="880" y="240" width="240" height="80" as="geometry"/>
                </mxCell>
                <mxCell id="14" style="edgeStyle=none;html=1;entryX=0.5;entryY=0;entryDx=0;entryDy=0;fontSize=27;strokeWidth=7;" parent="1" source="12" target="6" edge="1">
                    <mxGeometry relative="1" as="geometry"/>
                </mxCell>
                <mxCell id="15" style="edgeStyle=none;html=1;fontSize=27;strokeWidth=7;" parent="1" source="12" target="9" edge="1">
                    <mxGeometry relative="1" as="geometry"/>
                </mxCell>
                <mxCell id="16" style="edgeStyle=none;html=1;entryX=0.5;entryY=0;entryDx=0;entryDy=0;fontSize=27;strokeWidth=7;" parent="1" source="12" target="10" edge="1">
                    <mxGeometry relative="1" as="geometry"/>
                </mxCell>
                <mxCell id="12" value="&lt;span style=&quot;font-size: 27px;&quot;&gt;用户选择&lt;/span&gt;" style="whiteSpace=wrap;html=1;strokeWidth=3;perimeterSpacing=1;" parent="1" vertex="1">
                    <mxGeometry x="320" y="40" width="240" height="80" as="geometry"/>
                </mxCell>
                <mxCell id="17" style="edgeStyle=none;html=1;fontSize=27;strokeWidth=3;" parent="1" source="13" target="11" edge="1">
                    <mxGeometry relative="1" as="geometry"/>
                </mxCell>
                <mxCell id="13" value="&lt;span style=&quot;font-size: 27px;&quot;&gt;系统自动触发&lt;/span&gt;" style="whiteSpace=wrap;html=1;strokeWidth=3;perimeterSpacing=1;" parent="1" vertex="1">
                    <mxGeometry x="880" y="40" width="240" height="80" as="geometry"/>
                </mxCell>
                <mxCell id="52" style="edgeStyle=orthogonalEdgeStyle;html=1;entryX=0.5;entryY=0;entryDx=0;entryDy=0;strokeWidth=7;fillColor=#d80073;strokeColor=#A50040;exitX=0;exitY=1;exitDx=0;exitDy=0;" parent="1" source="18" target="51" edge="1">
                    <mxGeometry relative="1" as="geometry">
                        <Array as="points">
                            <mxPoint x="520" y="1520"/>
                            <mxPoint x="280" y="1520"/>
                        </Array>
                    </mxGeometry>
                </mxCell>
                <mxCell id="54" style="edgeStyle=orthogonalEdgeStyle;html=1;entryX=0.5;entryY=0;entryDx=0;entryDy=0;strokeWidth=7;exitX=0;exitY=1;exitDx=0;exitDy=0;fillColor=#d80073;strokeColor=#A50040;" parent="1" source="18" target="53" edge="1">
                    <mxGeometry relative="1" as="geometry">
                        <Array as="points">
                            <mxPoint x="520" y="1520"/>
                            <mxPoint x="40" y="1520"/>
                        </Array>
                    </mxGeometry>
                </mxCell>
                <mxCell id="63" style="edgeStyle=orthogonalEdgeStyle;html=1;entryX=0.5;entryY=0;entryDx=0;entryDy=0;strokeWidth=7;fontSize=90;exitX=1;exitY=1;exitDx=0;exitDy=0;fillColor=#008a00;strokeColor=#005700;" parent="1" source="18" target="61" edge="1">
                    <mxGeometry relative="1" as="geometry">
                        <Array as="points">
                            <mxPoint x="760" y="1520"/>
                            <mxPoint x="1000" y="1520"/>
                        </Array>
                    </mxGeometry>
                </mxCell>
                <mxCell id="18" value="统一通信网关UCG" style="rhombus;whiteSpace=wrap;html=1;strokeWidth=3;fontSize=27;" parent="1" vertex="1">
                    <mxGeometry x="400" y="1140" width="480" height="480" as="geometry"/>
                </mxCell>
                <mxCell id="41" style="edgeStyle=orthogonalEdgeStyle;html=1;entryX=0;entryY=0.5;entryDx=0;entryDy=0;strokeWidth=7;fontSize=27;fillColor=#d5e8d4;strokeColor=#82b366;" parent="1" source="19" target="18" edge="1">
                    <mxGeometry relative="1" as="geometry">
                        <Array as="points">
                            <mxPoint x="120" y="1380"/>
                        </Array>
                    </mxGeometry>
                </mxCell>
                <mxCell id="19" value="&lt;font style=&quot;font-size: 27px;&quot;&gt;文字&lt;/font&gt;" style="whiteSpace=wrap;html=1;strokeWidth=3;perimeterSpacing=1;" parent="1" vertex="1">
                    <mxGeometry x="40" y="520" width="160" height="80" as="geometry"/>
                </mxCell>
                <mxCell id="20" value="&lt;font style=&quot;font-size: 27px;&quot;&gt;实时语音&lt;/font&gt;" style="whiteSpace=wrap;html=1;strokeWidth=3;perimeterSpacing=1;" parent="1" vertex="1">
                    <mxGeometry x="520" y="680" width="160" height="80" as="geometry"/>
                </mxCell>
                <mxCell id="44" style="edgeStyle=orthogonalEdgeStyle;html=1;entryX=0.5;entryY=0;entryDx=0;entryDy=0;strokeWidth=7;fontSize=27;" parent="1" source="21" target="42" edge="1">
                    <mxGeometry relative="1" as="geometry"/>
                </mxCell>
                <mxCell id="21" value="&lt;span style=&quot;font-size: 27px;&quot;&gt;语音块&lt;/span&gt;" style="whiteSpace=wrap;html=1;strokeWidth=3;perimeterSpacing=1;" parent="1" vertex="1">
                    <mxGeometry x="280" y="680" width="160" height="80" as="geometry"/>
                </mxCell>
                <mxCell id="37" style="edgeStyle=orthogonalEdgeStyle;html=1;entryX=0.5;entryY=0;entryDx=0;entryDy=0;strokeWidth=7;fontSize=27;" parent="1" source="22" target="21" edge="1">
                    <mxGeometry relative="1" as="geometry"/>
                </mxCell>
                <mxCell id="38" style="edgeStyle=orthogonalEdgeStyle;html=1;strokeWidth=7;fontSize=27;" parent="1" source="22" target="20" edge="1">
                    <mxGeometry relative="1" as="geometry"/>
                </mxCell>
                <mxCell id="22" value="&lt;font style=&quot;font-size: 27px;&quot;&gt;音频&lt;/font&gt;" style="whiteSpace=wrap;html=1;strokeWidth=3;perimeterSpacing=1;" parent="1" vertex="1">
                    <mxGeometry x="400" y="520" width="160" height="80" as="geometry"/>
                </mxCell>
                <mxCell id="39" style="edgeStyle=orthogonalEdgeStyle;html=1;entryX=0.5;entryY=0;entryDx=0;entryDy=0;strokeWidth=7;fontSize=27;" parent="1" source="23" target="25" edge="1">
                    <mxGeometry relative="1" as="geometry"/>
                </mxCell>
                <mxCell id="40" style="edgeStyle=orthogonalEdgeStyle;html=1;strokeWidth=7;fontSize=27;" parent="1" source="23" target="24" edge="1">
                    <mxGeometry relative="1" as="geometry"/>
                </mxCell>
                <mxCell id="23" value="&lt;font style=&quot;font-size: 27px;&quot;&gt;文件&lt;/font&gt;" style="whiteSpace=wrap;html=1;strokeWidth=3;perimeterSpacing=1;" parent="1" vertex="1">
                    <mxGeometry x="880" y="520" width="160" height="80" as="geometry"/>
                </mxCell>
                <mxCell id="50" style="edgeStyle=orthogonalEdgeStyle;html=1;strokeWidth=7;fontSize=27;endArrow=classic;endFill=1;fillColor=#dae8fc;strokeColor=#6c8ebf;" parent="1" source="24" edge="1">
                    <mxGeometry relative="1" as="geometry">
                        <Array as="points">
                            <mxPoint x="1080" y="920"/>
                            <mxPoint x="960" y="920"/>
                            <mxPoint x="960" y="1380"/>
                        </Array>
                        <mxPoint x="880" y="1380" as="targetPoint"/>
                    </mxGeometry>
                </mxCell>
                <mxCell id="24" value="&lt;span style=&quot;font-size: 27px;&quot;&gt;不可解释文件&lt;/span&gt;" style="whiteSpace=wrap;html=1;strokeWidth=3;perimeterSpacing=1;" parent="1" vertex="1">
                    <mxGeometry x="1000" y="680" width="160" height="80" as="geometry"/>
                </mxCell>
                <mxCell id="48" style="edgeStyle=orthogonalEdgeStyle;html=1;entryX=1;entryY=0.5;entryDx=0;entryDy=0;strokeWidth=7;fontSize=27;endArrow=classic;endFill=1;fillColor=#dae8fc;strokeColor=#6c8ebf;" parent="1" source="25" target="18" edge="1">
                    <mxGeometry relative="1" as="geometry">
                        <Array as="points">
                            <mxPoint x="840" y="920"/>
                            <mxPoint x="960" y="920"/>
                            <mxPoint x="960" y="1380"/>
                        </Array>
                    </mxGeometry>
                </mxCell>
                <mxCell id="25" value="&lt;span style=&quot;font-size: 27px;&quot;&gt;可解释文件&lt;/span&gt;" style="whiteSpace=wrap;html=1;strokeWidth=3;perimeterSpacing=1;" parent="1" vertex="1">
                    <mxGeometry x="760" y="680" width="160" height="80" as="geometry"/>
                </mxCell>
                <mxCell id="46" style="edgeStyle=orthogonalEdgeStyle;html=1;strokeWidth=7;fontSize=27;endArrow=none;endFill=0;fillColor=#d5e8d4;strokeColor=#82b366;" parent="1" source="42" edge="1">
                    <mxGeometry relative="1" as="geometry">
                        <mxPoint x="120" y="990" as="targetPoint"/>
                    </mxGeometry>
                </mxCell>
                <mxCell id="42" value="&lt;span style=&quot;font-size: 27px;&quot;&gt;录音转文字&lt;/span&gt;" style="whiteSpace=wrap;html=1;strokeWidth=3;perimeterSpacing=1;" parent="1" vertex="1">
                    <mxGeometry x="280" y="840" width="160" height="80" as="geometry"/>
                </mxCell>
                <mxCell id="70" style="edgeStyle=orthogonalEdgeStyle;html=1;strokeColor=#B20000;strokeWidth=7;endArrow=none;endFill=0;fillColor=#e51400;" edge="1" parent="1" source="43">
                    <mxGeometry relative="1" as="geometry">
                        <mxPoint x="170" y="1040" as="targetPoint"/>
                    </mxGeometry>
                </mxCell>
                <mxCell id="43" value="&lt;span style=&quot;font-size: 27px;&quot;&gt;音频流实时转文字&lt;/span&gt;" style="whiteSpace=wrap;html=1;strokeWidth=3;perimeterSpacing=1;" parent="1" vertex="1">
                    <mxGeometry x="280" y="1000" width="160" height="80" as="geometry"/>
                </mxCell>
                <mxCell id="55" style="edgeStyle=orthogonalEdgeStyle;html=1;entryX=0.5;entryY=0;entryDx=0;entryDy=0;strokeWidth=7;fillColor=#d80073;strokeColor=#A50040;" parent="1" source="51" target="53" edge="1">
                    <mxGeometry relative="1" as="geometry"/>
                </mxCell>
                <mxCell id="58" style="edgeStyle=orthogonalEdgeStyle;html=1;strokeWidth=7;fillColor=#6a00ff;strokeColor=#3700CC;" parent="1" source="51" target="56" edge="1">
                    <mxGeometry relative="1" as="geometry"/>
                </mxCell>
                <mxCell id="51" value="&lt;font style=&quot;font-size: 27px;&quot;&gt;快速反射通道&lt;/font&gt;" style="whiteSpace=wrap;html=1;strokeWidth=3;perimeterSpacing=1;" parent="1" vertex="1">
                    <mxGeometry x="160" y="1600" width="240" height="80" as="geometry"/>
                </mxCell>
                <mxCell id="57" style="edgeStyle=orthogonalEdgeStyle;html=1;strokeWidth=7;fillColor=#6a00ff;strokeColor=#3700CC;" parent="1" source="53" target="56" edge="1">
                    <mxGeometry relative="1" as="geometry"/>
                </mxCell>
                <mxCell id="53" value="&lt;font style=&quot;font-size: 27px;&quot;&gt;深度处理通道&lt;/font&gt;" style="whiteSpace=wrap;html=1;strokeWidth=3;perimeterSpacing=1;" parent="1" vertex="1">
                    <mxGeometry x="-80" y="1800" width="240" height="80" as="geometry"/>
                </mxCell>
                <mxCell id="56" value="&lt;font style=&quot;font-size: 27px;&quot;&gt;输出管理器&lt;/font&gt;" style="whiteSpace=wrap;html=1;strokeWidth=3;perimeterSpacing=1;" parent="1" vertex="1">
                    <mxGeometry x="560" y="1800" width="240" height="80" as="geometry"/>
                </mxCell>
                <mxCell id="60" value="&lt;font style=&quot;font-size: 90px;&quot;&gt;输入通道&lt;/font&gt;" style="text;html=1;align=center;verticalAlign=middle;resizable=0;points=[];autosize=1;strokeColor=none;fillColor=none;" parent="1" vertex="1">
                    <mxGeometry x="-240" y="-20" width="380" height="120" as="geometry"/>
                </mxCell>
                <mxCell id="62" style="edgeStyle=orthogonalEdgeStyle;html=1;entryX=0.5;entryY=1;entryDx=0;entryDy=0;strokeWidth=7;fontSize=90;fillColor=#d80073;strokeColor=#A50040;" parent="1" source="61" target="53" edge="1">
                    <mxGeometry relative="1" as="geometry">
                        <Array as="points">
                            <mxPoint x="1000" y="1970"/>
                            <mxPoint x="40" y="1970"/>
                        </Array>
                    </mxGeometry>
                </mxCell>
                <mxCell id="61" value="&lt;font style=&quot;font-size: 27px;&quot;&gt;文件管理系统&lt;/font&gt;" style="whiteSpace=wrap;html=1;strokeWidth=3;perimeterSpacing=1;" parent="1" vertex="1">
                    <mxGeometry x="880" y="1600" width="240" height="80" as="geometry"/>
                </mxCell>
                <mxCell id="65" style="edgeStyle=orthogonalEdgeStyle;html=1;entryX=1;entryY=0.5;entryDx=0;entryDy=0;exitX=0.5;exitY=1;exitDx=0;exitDy=0;strokeWidth=7;fillColor=#60a917;strokeColor=#81b365;" edge="1" parent="1" source="64" target="43">
                    <mxGeometry relative="1" as="geometry"/>
                </mxCell>
                <mxCell id="64" value="&lt;span style=&quot;font-size: 27px;&quot;&gt;唤醒词唤醒&lt;/span&gt;" style="whiteSpace=wrap;html=1;strokeWidth=3;perimeterSpacing=1;" vertex="1" parent="1">
                    <mxGeometry x="520" y="840" width="160" height="80" as="geometry"/>
                </mxCell>
                <mxCell id="66" style="edgeStyle=orthogonalEdgeStyle;html=1;strokeWidth=7;fontSize=27;exitX=0.5;exitY=1;exitDx=0;exitDy=0;" edge="1" parent="1" source="20" target="64">
                    <mxGeometry relative="1" as="geometry">
                        <mxPoint x="370" y="771" as="sourcePoint"/>
                        <mxPoint x="370" y="849" as="targetPoint"/>
                    </mxGeometry>
                </mxCell>
                <mxCell id="67" value="&lt;span style=&quot;font-size: 27px;&quot;&gt;声纹识别&lt;/span&gt;" style="whiteSpace=wrap;html=1;strokeWidth=3;perimeterSpacing=1;" vertex="1" parent="1">
                    <mxGeometry x="280" y="1160" width="160" height="80" as="geometry"/>
                </mxCell>
                <mxCell id="68" style="edgeStyle=orthogonalEdgeStyle;html=1;entryX=1;entryY=0.5;entryDx=0;entryDy=0;exitX=0.5;exitY=1;exitDx=0;exitDy=0;strokeWidth=7;fillColor=#60a917;strokeColor=#81b365;" edge="1" parent="1" source="64" target="67">
                    <mxGeometry relative="1" as="geometry">
                        <mxPoint x="610" y="931" as="sourcePoint"/>
                        <mxPoint x="451" y="1050" as="targetPoint"/>
                        <Array as="points">
                            <mxPoint x="600" y="1040"/>
                            <mxPoint x="525" y="1040"/>
                            <mxPoint x="525" y="1200"/>
                        </Array>
                    </mxGeometry>
                </mxCell>
                <mxCell id="69" style="edgeStyle=orthogonalEdgeStyle;html=1;strokeWidth=7;fontSize=27;endArrow=none;endFill=0;fillColor=#d5e8d4;strokeColor=#82b366;exitX=0;exitY=0.5;exitDx=0;exitDy=0;" edge="1" parent="1" source="67">
                    <mxGeometry relative="1" as="geometry">
                        <mxPoint x="120" y="1040" as="targetPoint"/>
                        <Array as="points">
                            <mxPoint x="210" y="1200"/>
                            <mxPoint x="210" y="1040"/>
                        </Array>
                        <mxPoint x="289" y="1050" as="sourcePoint"/>
                    </mxGeometry>
                </mxCell>
            </root>
        </mxGraphModel>
    </diagram>
</mxfile>